<svg width="30" height="30" viewBox="0 0 30 30" fill="none" xmlns="http://www.w3.org/2000/svg">
<path d="M24.833 23.5625L18.4404 17.202C19.4267 15.9202 19.958 14.3548 19.9539 12.7097C19.9489 10.7406 19.1757 8.89606 17.7825 7.50737C16.3893 6.11868 14.536 5.35727 12.5693 5.36222C10.6026 5.36716 8.75316 6.14034 7.36693 7.53356C5.97824 8.92679 5.21682 10.7776 5.22177 12.7468C5.22671 14.7135 5.99989 16.5629 7.39312 17.9492C8.78634 19.3378 10.6371 20.0993 12.6063 20.0943C14.2514 20.0902 15.8117 19.551 17.0884 18.5607L23.481 24.9188C23.4997 24.9374 23.522 24.9522 23.5464 24.9623C23.5709 24.9723 23.5971 24.9775 23.6236 24.9774C23.65 24.9774 23.6762 24.9721 23.7006 24.9619C23.725 24.9517 23.7472 24.9368 23.7658 24.9181L24.8337 23.8473C24.8523 23.8285 24.8671 23.8063 24.8772 23.7818C24.8872 23.7574 24.8924 23.7312 24.8923 23.7047C24.8923 23.6783 24.887 23.6521 24.8768 23.6277C24.8666 23.6033 24.8517 23.5811 24.833 23.5625ZM16.4869 16.6078C15.4484 17.649 14.0699 18.2246 12.6016 18.2282C11.1333 18.2319 9.752 17.6633 8.70832 16.6273C7.66709 15.5889 7.09153 14.2104 7.08783 12.7421C7.08414 11.2738 7.65276 9.88999 8.68876 8.84877C9.72722 7.80754 11.1057 7.23197 12.574 7.22828C14.0423 7.22459 15.4261 7.79076 16.4673 8.82921C17.5085 9.86767 18.0841 11.2461 18.0878 12.7144C18.0915 14.1827 17.5229 15.5665 16.4869 16.6078Z" fill="#A5A5A5"/>
</svg>
