<svg width="22" height="22" viewBox="0 0 22 22" fill="none" xmlns="http://www.w3.org/2000/svg">
<path d="M12.5859 3.21754L14.1992 6.44421C14.4192 6.89338 15.0059 7.32421 15.5009 7.40671L18.425 7.89254C20.295 8.20421 20.735 9.56088 19.3875 10.8992L17.1142 13.1725C16.7292 13.5575 16.5184 14.3 16.6375 14.8317L17.2884 17.6459C17.8017 19.8734 16.6192 20.735 14.6484 19.5709L11.9075 17.9484C11.4125 17.655 10.5967 17.655 10.0925 17.9484L7.35171 19.5709C5.39004 20.735 4.19837 19.8642 4.71171 17.6459L5.36254 14.8317C5.48171 14.3 5.27087 13.5575 4.88587 13.1725L2.61254 10.8992C1.27421 9.56088 1.70504 8.20421 3.57504 7.89254L6.49921 7.40671C6.98504 7.32421 7.57171 6.89338 7.79171 6.44421L9.40504 3.21754C10.285 1.46671 11.715 1.46671 12.5859 3.21754Z" fill="#FFE32E"/>
</svg>
